# xmcd
#
# Track frame offsets: 
#        150
#        13155
#        26695
#        40965
#        55007
#        68762
#        83492
#        98102
#        111670
#        126110
#        140300
#        153867
#        167225
#        179310
#        192427
#        204997
#        218812
#        232637
#        246715
#        261042
#        275225
#        289902
#        304197
#        316675
#        328755
#
# Disc length: 4569 seconds
#
# Revision: 2
# Processed by: cddbd v1.4PL0 Copyright (c) Steve Scherf et al.
# Submitted via: ExactAudioCopy v0.90b3
#
DISCID=6b11d719
DTITLE=Wilf Carter - Montana Slim - Disc 2
DYEAR=1900
DGENRE=Country
TTITLE0=Awaiting The Chair - 1934
TTITLE1=The Life And Death Of John Dillinger - 1934
TTITLE2=The Cowhand's Guiding Star - 1934
TTITLE3=Hobo's Song Of The Mounties - 1934
TTITLE4=By The Silvery Moonlight Trial - 1934
TTITLE5=The Dying Mother's Prayer - 1934
TTITLE6=I Long For Old Wyoming - 1934
TTITLE7=How My Yodelling Days Began - 1935
TTITLE8=I'm Hitting The Trail - 1935
TTITLE9=Lonesome For My Baby Tonight - 1935
TTITLE10=I'm Gonna Ride To Heaven On A Streamilined Train - 1935
TTITLE11=Sundown Blues - 1935
TTITLE12=Cowboy Lullaby - 1935
TTITLE13=Yodelling Hillbilly - 1935
TTITLE14=Two-Gun Cowboy - 1935
TTITLE15=Hillbilly Vallby - 1935
TTITLE16=Returning To My Old Prairie Home - 1935
TTITLE17=Pete Knight The King Of The Cowboys - 1935
TTITLE18=Cowboy's Mother - 1935
TTITLE19=Calgary Roundup - 1935
TTITLE20=Trail To Home Sweet Home - 1935
TTITLE21=My Blues Have Turned To Sunshine - 1935
TTITLE22=Dear Old Daddy Of Mine - 1935
TTITLE23=My Little Grey Haired Mother In The West - 1935
TTITLE24=A Little Log Shack I Can Always Call My Home - 1935
EXTD=
EXTT0=
EXTT1=
EXTT2=
EXTT3=
EXTT4=
EXTT5=
EXTT6=
EXTT7=
EXTT8=
EXTT9=
EXTT10=
EXTT11=
EXTT12=
EXTT13=
EXTT14=
EXTT15=
EXTT16=
EXTT17=
EXTT18=
EXTT19=
EXTT20=
EXTT21=
EXTT22=
EXTT23=
EXTT24=
PLAYORDER=
